<?xml version="1.0" standalone="no"?>
<!DOCTYPE svg PUBLIC "-//W3C//DTD SVG 20010904//EN"
 "http://www.w3.org/TR/2001/REC-SVG-20010904/DTD/svg10.dtd">
<svg version="1.0" xmlns="http://www.w3.org/2000/svg"
 width="430.000000pt" height="224.000000pt" viewBox="0 0 430.000000 224.000000"
 preserveAspectRatio="xMidYMid meet">

<g transform="translate(0.000000,224.000000) scale(0.100000,-0.100000)"
fill="#000000" stroke="none">
<path d="M415 2111 c-48 -22 -69 -44 -90 -94 -12 -30 -15 -89 -15 -337 l0
-300 -135 0 -135 0 0 -190 0 -190 135 0 135 0 0 -300 c0 -339 2 -350 77 -407
l36 -28 199 -3 198 -3 0 95 0 96 1275 0 1275 0 0 -95 0 -95 190 0 c208 0 234
5 282 56 15 16 32 42 37 57 7 18 11 140 11 328 l0 299 154 0 154 0 -1 195 0
195 -154 0 -153 0 0 297 c0 282 -1 299 -21 341 -13 26 -38 54 -62 70 -40 27
-43 27 -239 30 l-199 4 3 -96 3 -96 -1277 0 -1278 0 0 95 0 95 -182 0 c-156 0
-189 -3 -223 -19z m355 -916 l0 -885 -157 0 c-175 0 -194 5 -230 59 l-23 34 0
789 c0 871 -3 828 63 868 28 18 51 20 190 20 l157 0 0 -885z m2995 871 c19 -8
44 -30 55 -48 20 -32 20 -48 20 -831 l0 -797 -34 -38 -34 -37 -176 -3 -176 -3
0 885 0 886 155 0 c113 0 165 -4 190 -14z m-393 -321 l3 -145 -1277 0 -1278 0
0 145 0 145 1274 0 1275 0 3 -145z m-2362 -555 l0 -360 -95 0 -95 0 0 360 0
360 95 0 95 0 0 -360z m145 270 c-49 -49 -92 -90 -95 -90 -9 0 2 155 12 168 7
8 39 12 92 12 l81 0 -90 -90z m100 -100 l-190 -190 -3 72 -3 72 118 118 118
118 75 0 75 0 -190 -190z m98 -104 l-288 -295 -3 77 -3 76 218 218 218 218 73
0 74 0 -289 -294z m136 -63 c-346 -351 -354 -358 -396 -361 -42 -3 -43 -2 -43
28 0 28 37 70 322 361 l322 329 74 0 75 0 -354 -357z m195 -4 l-360 -360 -68
3 -68 3 352 358 352 357 76 0 77 0 -361 -361z m321 119 c-133 -134 -292 -296
-355 -360 l-115 -117 -78 -3 -77 -3 142 145 c79 80 240 243 358 363 l215 217
75 0 75 0 -240 -242z m81 -117 l-359 -359 -69 -4 c-37 -2 -67 0 -66 4 2 4 160
167 351 362 l349 356 76 0 77 0 -359 -359z m204 2 l-355 -358 -77 -5 -78 -5
128 130 c70 72 230 235 357 363 l230 232 74 0 75 0 -354 -357z m196 -2 l-359
-360 -74 -3 c-40 -2 -73 -2 -73 -2 0 1 160 164 356 363 l356 361 77 0 76 0
-359 -359z m394 192 c-91 -93 -250 -254 -354 -360 l-189 -192 -78 -3 c-44 -2
-79 -2 -79 -1 0 1 160 164 356 363 l357 360 76 0 76 0 -165 -167z m260 115
l-1 -53 -303 -307 -303 -306 -71 -4 c-40 -1 -72 -1 -72 1 0 1 158 165 352 362
387 395 398 404 398 307z m230 -308 l0 -360 -90 0 -90 0 0 360 0 360 90 0 90
0 0 -360z m-230 128 l0 -73 -200 -207 -200 -206 -80 -4 c-44 -2 -80 -3 -80 -3
1 0 126 127 278 282 152 156 278 283 280 283 1 0 2 -33 2 -72z m-2830 -128 l0
-140 -110 0 -110 0 0 140 0 140 110 0 110 0 0 -140z m3840 0 l0 -140 -130 0
-130 0 0 140 0 140 130 0 130 0 0 -140z m-1112 -257 l-103 -103 -76 0 -76 0
176 182 176 181 3 -78 3 -79 -103 -103z m102 -27 l0 -74 -75 -4 c-41 -2 -75
-1 -75 2 0 5 142 150 147 150 2 0 3 -33 3 -74z m230 -266 l0 -140 -1275 0
-1275 0 0 140 0 140 1275 0 1275 0 0 -140z"/>
</g>
</svg>
