<?xml version="1.0" encoding="iso-8859-1"?>
<!-- Uploaded to: SVG Repo, www.svgrepo.com, Generator: SVG Repo Mixer Tools -->
<!DOCTYPE svg PUBLIC "-//W3C//DTD SVG 1.1//EN" "http://www.w3.org/Graphics/SVG/1.1/DTD/svg11.dtd">
<svg fill="#000000" version="1.1" id="Capa_1" xmlns="http://www.w3.org/2000/svg" xmlns:xlink="http://www.w3.org/1999/xlink" 
	 width="800px" height="800px" viewBox="0 0 303.093 303.093"
	 xml:space="preserve">
<g>
	<path d="M279.388,52.905h-12.586c-2.162-5.896-5.152-12.535-9.607-19.963c-2.51-4.176-7.927-5.53-12.105-3.021
		c-4.168,2.51-5.537,7.92-3.015,12.094c2.444,4.077,4.264,7.779,5.818,11.259c-1.567,0.673-2.672,2.228-2.672,4.048v68.881
		c0,2.435,1.97,4.401,4.413,4.401h4.402v111.869c0,9.344-3.027,12.965-5.513,13.223c-6.401,0-6.6-12.046-6.6-12.123V113.524
		c0-8.812-3.957-13.917-7.26-16.646c-3.854-3.167-8.467-4.464-12.586-4.957V8.824c0-4.876-3.951-8.824-8.821-8.824H44.637
		c-4.87,0-8.818,3.948-8.818,8.824v276.632h-7.71c-4.882,0-8.824,3.945-8.824,8.815c0,4.876,3.942,8.821,8.824,8.821h16.528h168.62
		h19.846c4.864,0,8.821-3.945,8.821-8.821c0-4.87-3.957-8.815-8.821-8.815h-11.024V109.84c0.54,0.183,1.045,0.375,1.381,0.646
		c0.547,0.465,0.829,1.48,0.829,3.029v130.052c0,14.334,7.566,29.754,24.235,29.754c8.011,0,23.154-6.449,23.154-30.858V130.604
		h7.716c2.433,0,4.414-1.961,4.414-4.401V57.322C283.796,54.887,281.814,52.905,279.388,52.905z M183.503,135.573H74.397
		c-4.876,0-8.824-3.942-8.824-8.824c0-4.87,3.948-8.817,8.824-8.817h109.106c4.864,0,8.815,3.948,8.815,8.817
		C192.319,131.631,188.368,135.573,183.503,135.573z M183.503,109.119H74.397c-4.876,0-8.824-3.939-8.824-8.824
		c0-4.87,3.948-8.817,8.824-8.817h109.106c4.864,0,8.815,3.948,8.815,8.817C192.319,105.18,188.368,109.119,183.503,109.119z
		 M183.503,82.668H74.397c-4.876,0-8.824-3.942-8.824-8.824c0-4.87,3.948-8.818,8.824-8.818h109.106
		c4.864,0,8.815,3.948,8.815,8.818C192.319,78.732,188.368,82.668,183.503,82.668z"/>
</g>
</svg>