<?xml version="1.0" standalone="no"?>
<!DOCTYPE svg PUBLIC "-//W3C//DTD SVG 20010904//EN"
 "http://www.w3.org/TR/2001/REC-SVG-20010904/DTD/svg10.dtd">
<svg version="1.0" xmlns="http://www.w3.org/2000/svg"
 width="91.000000pt" height="187.000000pt" viewBox="0 0 91.000000 187.000000"
 preserveAspectRatio="xMidYMid meet">

<g transform="translate(0.000000,187.000000) scale(0.100000,-0.100000)"
fill="#000000" stroke="none">
<path d="M248 1799 c-22 -12 -23 -42 -2 -63 11 -11 35 -16 80 -16 l64 0 0 -55
c0 -52 -1 -55 -25 -55 -31 0 -45 -26 -45 -88 l0 -49 -52 -24 c-67 -31 -129
-95 -165 -167 l-28 -57 -3 -583 c-2 -396 1 -589 8 -602 10 -19 22 -20 338 -20
188 0 333 4 342 10 13 8 15 83 18 556 1 343 -1 567 -8 602 -20 112 -90 206
-189 256 -44 23 -51 30 -51 56 0 28 3 30 36 30 26 0 46 -8 71 -30 75 -66 193
-10 193 92 0 33 -36 87 -66 98 -64 25 -121 5 -150 -51 -14 -29 -17 -30 -76
-27 l-61 3 -1 50 -1 50 55 3 c30 2 60 8 67 14 16 13 17 50 1 66 -15 15 -325
16 -350 1z m490 -217 c3 -16 -2 -22 -17 -22 -24 0 -35 15 -27 36 9 23 40 13
44 -14z m-298 -72 c0 -5 -7 -10 -15 -10 -8 0 -15 5 -15 10 0 6 7 10 15 10 8 0
15 -4 15 -10z m90 -150 c62 -32 106 -76 131 -132 l24 -53 3 -533 3 -532 -266
0 -266 0 3 548 c3 543 3 547 25 588 29 55 96 111 153 129 56 18 138 12 190
-15z"/>
</g>
</svg>
