<?xml version="1.0" standalone="no"?>
<!DOCTYPE svg PUBLIC "-//W3C//DTD SVG 20010904//EN"
 "http://www.w3.org/TR/2001/REC-SVG-20010904/DTD/svg10.dtd">
<svg version="1.0" xmlns="http://www.w3.org/2000/svg"
 width="198.000000pt" height="161.000000pt" viewBox="0 0 198.000000 161.000000"
 preserveAspectRatio="xMidYMid meet">

<g transform="translate(0.000000,161.000000) scale(0.100000,-0.100000)"
fill="#000000" stroke="none">
<path d="M561 1534 c-38 -27 -51 -74 -51 -187 0 -109 6 -127 47 -127 18 0 23
-6 23 -25 l0 -25 -133 0 c-181 0 -222 -13 -302 -93 -76 -76 -94 -124 -102
-264 -5 -92 -8 -103 -24 -103 -15 0 -19 -8 -19 -40 0 -32 4 -40 19 -40 16 0
19 -11 23 -98 6 -124 31 -185 100 -247 52 -47 122 -75 185 -75 33 0 34 -1 31
-37 -3 -37 -4 -38 -48 -43 -41 -5 -45 -8 -48 -34 -2 -16 2 -32 10 -37 7 -5
236 -9 509 -9 536 0 525 -1 517 52 -2 19 -10 24 -47 28 -43 5 -44 6 -45 43 -1
33 2 38 30 47 57 19 114 102 114 165 0 24 2 25 70 25 39 0 85 6 103 14 42 18
82 62 96 107 14 45 30 49 187 49 112 0 115 1 144 29 23 21 30 37 30 65 0 21
-4 35 -9 31 -5 -3 -13 4 -16 16 -12 36 -63 49 -199 49 l-125 0 -7 38 c-9 52
-32 88 -77 119 -31 21 -52 27 -116 31 l-79 4 -6 37 c-12 77 -89 153 -166 166
-34 6 -40 11 -40 31 0 20 5 24 29 24 25 0 29 4 34 33 2 17 3 76 2 129 -3 107
-16 141 -61 158 -14 6 -146 10 -292 10 -231 0 -271 -2 -291 -16z m567 -151 l3
-83 -271 0 -270 0 0 85 0 85 268 -2 267 -3 3 -82z m-63 -230 l0 -68 73 -5 c65
-4 77 -8 98 -33 l24 -28 0 -334 0 -333 -26 -31 -26 -31 -349 0 -349 0 0 65 0
66 330 -3 330 -3 0 38 0 37 -330 0 -330 0 0 50 0 50 330 0 330 0 0 35 0 35
-330 0 -330 0 0 50 0 50 331 0 330 0 -3 36 -3 35 -327 -1 -328 -1 0 56 0 55
330 0 330 0 0 35 0 35 -330 0 -330 0 0 40 0 40 70 0 70 0 0 65 0 65 208 0 207
0 0 -67z m-635 -463 l0 -400 -72 0 c-83 0 -137 20 -180 66 -50 54 -58 97 -58
320 0 234 11 281 77 346 51 49 96 67 171 68 l62 0 0 -400z m1089 164 l31 -26
0 -143 c0 -137 -1 -145 -24 -172 -21 -25 -31 -28 -100 -31 l-76 -4 0 201 0
201 69 0 c60 0 74 -3 100 -26z m371 -184 c0 -19 -7 -20 -130 -20 -123 0 -130
1 -130 20 0 19 7 20 130 20 123 0 130 -1 130 -20z m-765 -498 l0 -32 -348 -3
-347 -2 0 38 0 37 348 -2 347 -3 0 -33z"/>
</g>
</svg>
