<?xml version="1.0" standalone="no"?>
<!DOCTYPE svg PUBLIC "-//W3C//DTD SVG 20010904//EN"
 "http://www.w3.org/TR/2001/REC-SVG-20010904/DTD/svg10.dtd">
<svg version="1.0" xmlns="http://www.w3.org/2000/svg"
 width="152.000000pt" height="115.000000pt" viewBox="0 0 152.000000 115.000000"
 preserveAspectRatio="xMidYMid meet">

<g transform="translate(0.000000,115.000000) scale(0.100000,-0.100000)"
fill="#000000" stroke="none">
<path d="M462 1048 c-16 -16 -15 -55 1 -65 6 -4 73 -10 147 -13 l135 -5 0
-110 0 -110 -53 -5 c-50 -5 -57 -10 -99 -58 -25 -29 -55 -58 -67 -65 -12 -7
-79 -14 -164 -17 l-144 -5 -29 -33 c-28 -31 -29 -36 -29 -135 0 -102 0 -104
31 -133 30 -29 32 -29 167 -34 76 -3 146 -10 157 -17 11 -6 40 -34 63 -62 l43
-51 150 0 149 0 57 56 c32 31 68 60 81 65 13 5 76 9 141 9 193 0 216 18 216
172 0 88 -2 99 -24 122 -34 36 -78 46 -215 46 l-119 0 -44 48 c-24 26 -52 57
-63 70 -15 17 -30 22 -70 22 l-50 0 0 115 0 115 123 0 c126 0 148 6 160 42 3
9 -2 23 -12 32 -15 14 -57 16 -322 16 -224 0 -308 -3 -317 -12z m472 -453 c86
-73 122 -85 262 -85 80 0 124 -4 132 -12 15 -15 16 -102 2 -129 -10 -17 -22
-19 -133 -19 -141 0 -168 -9 -259 -84 l-57 -46 -113 0 -113 0 -45 45 c-72 73
-106 85 -249 85 l-122 0 3 78 3 77 135 5 c151 6 162 10 248 84 l54 46 100 0
100 0 52 -45z"/>
</g>
</svg>
