<?xml version="1.0" standalone="no"?>
<!DOCTYPE svg PUBLIC "-//W3C//DTD SVG 20010904//EN"
 "http://www.w3.org/TR/2001/REC-SVG-20010904/DTD/svg10.dtd">
<svg version="1.0" xmlns="http://www.w3.org/2000/svg"
 width="120.000000pt" height="162.000000pt" viewBox="0 0 120.000000 162.000000"
 preserveAspectRatio="xMidYMid meet">

<g transform="translate(0.000000,162.000000) scale(0.100000,-0.100000)"
fill="#000000" stroke="none">
<path d="M130 1546 c-17 -22 -8 -60 18 -71 18 -8 22 -18 22 -58 0 -44 -5 -54
-46 -101 -26 -28 -53 -65 -60 -83 -11 -26 -14 -133 -14 -530 0 -463 2 -501 19
-539 22 -49 60 -80 112 -94 25 -7 182 -10 437 -8 448 3 445 3 499 80 l28 41 3
501 c3 569 6 545 -78 633 -46 49 -50 57 -50 102 0 43 3 50 21 53 32 5 45 31
31 62 l-12 26 -459 0 c-388 0 -460 -2 -471 -14z m802 -117 c-5 -53 14 -112 44
-140 15 -13 40 -42 55 -63 26 -35 29 -47 29 -118 l0 -78 -460 0 -460 0 0 84 0
84 48 54 c65 71 72 86 72 157 l0 61 337 -2 338 -3 -3 -36z m126 -855 l-3 -366
-33 -29 -32 -29 -396 0 -396 0 -29 29 -29 29 0 366 0 366 460 0 461 0 -3 -366z"/>
</g>
</svg>
